<?xml version="1.0" encoding="UTF-8" standalone="no"?>
<!-- Created with Inkscape (http://www.inkscape.org/) by Marsupilami -->

<svg
   xmlns:dc="http://purl.org/dc/elements/1.1/"
   xmlns:cc="http://creativecommons.org/ns#"
   xmlns:rdf="http://www.w3.org/1999/02/22-rdf-syntax-ns#"
   xmlns:svg="http://www.w3.org/2000/svg"
   xmlns="http://www.w3.org/2000/svg"
   xmlns:sodipodi="http://sodipodi.sourceforge.net/DTD/sodipodi-0.dtd"
   xmlns:inkscape="http://www.inkscape.org/namespaces/inkscape"
   version="1.0"
   width="1024"
   height="405"
   viewBox="0 0 141.68695 56.054741"
   id="svg2268"
   sodipodi:docname="xing_icon.svg"
   inkscape:version="0.92.3 (2405546, 2018-03-11)">
  <metadata
     id="metadata9">
    <rdf:RDF>
      <cc:Work
         rdf:about="">
        <dc:format>image/svg+xml</dc:format>
        <dc:type
           rdf:resource="http://purl.org/dc/dcmitype/StillImage" />
      </cc:Work>
    </rdf:RDF>
  </metadata>
  <sodipodi:namedview
     pagecolor="#ffffff"
     bordercolor="#666666"
     borderopacity="1"
     objecttolerance="10"
     gridtolerance="10"
     guidetolerance="10"
     inkscape:pageopacity="0"
     inkscape:pageshadow="2"
     inkscape:window-width="1680"
     inkscape:window-height="987"
     id="namedview7"
     showgrid="false"
     inkscape:zoom="1.0496116"
     inkscape:cx="691.25684"
     inkscape:cy="301.30479"
     inkscape:window-x="-8"
     inkscape:window-y="-8"
     inkscape:window-maximized="1"
     inkscape:current-layer="layer1" />
  <defs
     id="defs2270" />
  <g
     transform="translate(-194.8708,-324.33481)"
     id="layer1">
    <path
       d="M 112.1875,7.53125 C 111.85625,7.5312501 111.5775,7.6475 111.4375,7.875 C 111.2925,8.1100001 111.315,8.4125 111.46875,8.71875 L 115.1875,15.15625 C 115.19375,15.16875 115.19375,15.17625 115.1875,15.1875 L 109.34375,25.5 C 109.19125,25.803751 109.19875,26.10875 109.34375,26.34375 C 109.48375,26.569999 109.73125,26.71875 110.0625,26.71875 L 115.5625,26.71875 C 116.385,26.71875 116.78125,26.16375 117.0625,25.65625 C 117.0625,25.65625 122.7775,15.54875 123,15.15625 C 122.9775,15.12 119.21875,8.5625 119.21875,8.5625 C 118.945,8.0750002 118.53125,7.53125 117.6875,7.53125 L 112.1875,7.53125 z M 87.96875,19.5625 C 79.433754,19.562501 74.75,24.5425 74.75,33.5625 L 74.75,43.0625 C 74.749997,51.677498 78.85125,56.0625 86.96875,56.0625 C 93.532499,56.062499 98.8475,53.49625 99.21875,53.3125 L 99.21875,36.25 C 99.218749,35.720001 98.8425,35.34375 98.3125,35.34375 L 87.4375,35.34375 C 86.9075,35.343748 86.53125,35.72 86.53125,36.25 L 86.53125,40.625 C 86.53125,41.155 86.9075,41.53125 87.4375,41.53125 L 92.5,41.53125 C 92.521246,41.531249 92.53125,41.54125 92.53125,41.5625 L 92.53125,48.9375 C 92.531248,48.953749 92.51375,48.96375 92.5,48.96875 C 92.476248,48.978749 90.115,49.875 87.1875,49.875 C 83.32,49.875 81.4375,47.475 81.4375,42.5625 L 81.4375,33.5625 C 81.437498,31.008749 81.94,29.13125 82.96875,27.84375 C 84.095,26.435 85.7975,25.75 88.21875,25.75 L 89.28125,25.75 C 92.796248,25.75 95.51125,26.535 97.25,27.09375 C 97.520001,27.18 97.7675,27.135 97.9375,27 C 98.111247,26.8625 98.21875,26.62875 98.21875,26.34375 L 98.21875,22.15625 C 98.218752,21.682501 97.98625,21.41625 97.28125,21.0625 C 96.382502,20.6125 93.82375,19.5625 89.40625,19.5625 L 87.96875,19.5625 z M 1.15625,20.03125 C 0.90375,20.03125 0.70750002,20.12875 0.59375,20.3125 C 0.47,20.51125 0.47124999,20.786249 0.59375,21.03125 L 9.53125,37.3125 C 9.5375,37.32375 9.5375002,37.363751 9.53125,37.375 L 0.09375,54.46875 C -0.03,54.715 -0.029999997,54.98875 0.09375,55.1875 C 0.20625,55.37125 0.40375,55.468751 0.65625,55.46875 L 6.75,55.46875 C 7.4475,55.46875 7.6962501,55.077501 7.96875,54.53125 L 14.21875,43.03125 C 14.225,43.01875 14.23625,43.000001 14.25,43 C 14.265,43 14.275,43.01875 14.28125,43.03125 C 14.28125,43.03125 20.56125,54.53 20.5625,54.53125 C 20.83375,55.07625 21.052501,55.468751 21.75,55.46875 L 27.875,55.46875 C 28.1275,55.46875 28.324999,55.37125 28.4375,55.1875 C 28.5,55.0875 28.531251,54.965001 28.53125,54.84375 C 28.53125,54.72125 28.498749,54.5925 28.4375,54.46875 C 28.43625,54.46625 18.96875,37.375001 18.96875,37.375 C 18.965,37.36875 18.968751,37.35 18.96875,37.34375 C 18.96875,37.3375 18.965,37.317498 18.96875,37.3125 L 27.9375,21.03125 C 27.99875,20.9075 28.031251,20.778751 28.03125,20.65625 C 28.03125,20.535 27.998749,20.41125 27.9375,20.3125 C 27.82375,20.12875 27.626249,20.03125 27.375,20.03125 L 21.25,20.03125 C 20.5525,20.03125 20.30375,20.42375 20.03125,20.96875 L 14.28125,31.65625 C 14.275,31.6675 14.265,31.687501 14.25,31.6875 C 14.23625,31.6875 14.225,31.667499 14.21875,31.65625 C 14.21875,31.65625 8.4700004,20.96875 8.46875,20.96875 C 8.24125,20.51125 8.0012498,20.03125 7.25,20.03125 L 1.15625,20.03125 z M 32.96875,20.03125 C 32.44,20.03125 32.062501,20.40875 32.0625,20.9375 L 32.0625,54.5625 C 32.0625,55.09125 32.439999,55.468749 32.96875,55.46875 L 37.8125,55.46875 C 38.34125,55.46875 38.718751,55.09125 38.71875,54.5625 L 38.71875,20.9375 C 38.71875,20.40875 38.341249,20.03125 37.8125,20.03125 L 32.96875,20.03125 z M 45.90625,20.03125 C 45.3775,20.03125 44.968748,20.40875 44.96875,20.9375 L 44.96875,54.5625 C 44.96875,55.09125 45.3775,55.468749 45.90625,55.46875 L 50.75,55.46875 C 51.27875,55.46875 51.656251,55.09125 51.65625,54.5625 L 51.65625,34.28125 C 51.65625,34.26375 51.67125,34.253749 51.6875,34.25 C 51.70375,34.245 51.711251,34.26625 51.71875,34.28125 C 51.71875,34.28125 62.218748,54.529998 62.21875,54.53125 C 62.435,54.96375 62.771251,55.468749 63.4375,55.46875 L 68.5,55.46875 C 69.02875,55.46875 69.406248,55.09125 69.40625,54.5625 L 69.40625,20.9375 C 69.40625,20.40875 69.028746,20.03125 68.5,20.03125 L 63.65625,20.03125 C 63.1275,20.03125 62.749998,20.40875 62.75,20.9375 L 62.75,41.1875 C 62.75,41.205 62.735,41.215002 62.71875,41.21875 C 62.7025,41.22375 62.664999,41.233751 62.65625,41.21875 C 62.65625,41.21875 52.15625,20.969999 52.15625,20.96875 C 51.92625,20.5125 51.688749,20.03125 50.9375,20.03125 L 45.90625,20.03125 z "
       transform="translate(194.8708,324.33481)"
       style="fill:#005a5f;fill-opacity:1;fill-rule:nonzero;stroke:none"
       id="path19359" />
    <path
       d="m 330.16424,324.33481 c -0.82125,0 -1.1775,0.5175 -1.4725,1.0475 0,0 -3.06703,5.43906 -6.13162,10.87357 -2.95892,5.24711 -5.91555,10.48998 -6.10713,10.82893 0.02,0.0375 7.815,14.3375 7.815,14.3375 0.2725,0.4875 0.69375,1.0475 1.53625,1.0475 h 5.49375 c 0.33125,0 0.59,-0.125 0.73,-0.35125 0.14625,-0.235 0.1425,-0.545 -0.0112,-0.85 l -7.75375,-14.16625 c -0.007,-0.0112 -0.007,-0.025 0,-0.0362 l 2.18428,-3.86206 0.88261,-1.56056 9.11061,-16.10863 c 0.1525,-0.30375 0.15625,-0.61375 0.0112,-0.84875 -0.14,-0.22625 -0.4,-0.35125 -0.73125,-0.35125 z"
       style="fill:#d4d600;fill-opacity:1;fill-rule:nonzero;stroke:none"
       id="path19375"
       inkscape:connector-curvature="0"
       sodipodi:nodetypes="scsccssccccccccss" />
    <path
       style="fill:#ffffff;stroke-width:0.67368424"
       d="m 941.37105,274.09783 c -1.21435,-0.59854 -2.88286,-1.89039 -3.7078,-2.87078 -0.82494,-0.98038 -14.34344,-25.36992 -30.04111,-54.19897 -24.34744,-44.71452 -28.44335,-52.63029 -27.87523,-53.87178 1.57328,-3.43796 89.30117,-158.5444468 90.32354,-159.6956726 2.5829,-2.90846112 4.34849,-3.10702071 27.62758,-3.10702071 21.63967,0 22.20567,0.0340729 23.99897,1.44462901 1.5125,1.1897817 1.7933,1.873139 1.5914,3.8736842 -0.1709,1.6933988 -13.5841,25.9945211 -44.28874,80.2395821 -24.22398,42.795788 -44.04089,78.113688 -44.03757,78.484208 0.003,0.37053 12.13253,22.80421 26.95379,49.85263 14.82127,27.04842 27.5966,50.45529 28.38962,52.01527 1.86506,3.6688 1.81865,5.2692 -0.21172,7.29956 l -1.65359,1.65359 -22.43062,-0.0154 c -19.26898,-0.0132 -22.74183,-0.16873 -24.63852,-1.10359 z"
       id="path63"
       inkscape:connector-curvature="0"
       transform="matrix(0.13840677,0,0,0.13840677,194.85001,324.33481)" />
    <path
       style="fill:#ffffff;stroke-width:0.95273334"
       d="m 791.70512,190.51074 c -2.21162,-2.21161 -2.2776,-2.55673 -1.04745,-5.47822 0.72207,-1.71484 10.44352,-19.19528 21.60322,-38.8454 11.15971,-19.65013 20.27657,-36.15623 20.25969,-36.68024 -0.0169,-0.524 -6.04418,-11.314005 -13.39402,-23.977785 -7.34984,-12.663779 -13.63977,-23.896012 -13.97763,-24.960516 -0.41199,-1.298057 0.0448,-2.594528 1.38695,-3.936701 1.94065,-1.940654 2.70597,-1.992606 25.27959,-1.716018 l 23.27835,0.285222 2.74294,2.8582 c 1.98306,2.066395 22.54324,36.767761 30.21589,50.998228 0.14927,0.27684 -9.90485,18.49787 -22.34249,40.49116 -19.74753,34.91928 -23.02885,40.19896 -25.88769,41.65362 -2.82622,1.43806 -6.17785,1.666 -24.51542,1.66728 l -21.24162,10e-4 z"
       id="path65"
       inkscape:connector-curvature="0"
       transform="matrix(0.13840677,0,0,0.13840677,194.85001,324.33481)" />
    <path
       style="fill:#ffffff;stroke-width:0.95273334"
       d="m 608.92614,403.38634 c -32.4331,-5.09178 -53.6668,-22.64745 -62.75546,-51.88519 -4.78397,-15.38975 -4.96935,-18.19753 -4.96935,-75.26593 0,-58.77695 0.0415,-59.29043 6.31042,-78.10425 7.80703,-23.42988 23.77665,-40.3593 46.56628,-49.36501 25.37477,-10.02726 75.08608,-9.37532 103.0231,1.3511 4.00037,1.53595 8.39485,3.83196 9.76552,5.10225 l 2.49212,2.30962 v 17.5234 c 0,23.07644 0.89122,22.12741 -16.3841,17.44664 -17.75711,-4.8113 -29.94784,-6.46251 -48.87813,-6.62046 -13.03931,-0.10879 -17.56372,0.21324 -23.21055,1.65203 -13.23479,3.37217 -23.33543,12.47634 -28.09853,25.3265 -4.22093,11.38745 -4.59443,17.25444 -4.21676,66.23638 0.3075,39.88133 0.56414,46.46243 2.00625,51.4476 4.79642,16.58055 13.55633,25.61143 28.18793,29.05987 9.49678,2.23825 30.97121,0.33723 45.81542,-4.05579 l 4.2873,-1.2688 0.2528,-27.34956 0.25279,-27.34955 h -19.83991 c -15.61779,0 -20.23349,-0.28742 -21.6893,-1.35056 -1.6981,-1.24009 -1.87342,-2.82138 -2.14329,-19.3317 -0.28019,-17.14112 -0.19907,-18.10172 1.73643,-20.5623 l 2.03035,-2.58118 h 41.78197 41.78196 l 1.97462,2.51032 c 1.95183,2.48135 1.97462,3.22751 1.97462,64.65647 v 62.14616 l -9.94576,3.91415 c -25.82468,10.16331 -47.19672,14.49115 -73.89478,14.96371 -10.21806,0.18086 -21.11434,-0.0693 -24.21396,-0.55592 z"
       id="path67"
       inkscape:connector-curvature="0"
       transform="matrix(0.13840677,0,0,0.13840677,194.85001,324.33481)" />
    <path
       style="fill:#ffffff;stroke-width:0.95273334"
       d="m 327.91755,398.5923 -2.51032,-1.97461 V 272.8315 c 0,-122.51587 0.0196,-123.80574 1.90547,-125.69165 1.79058,-1.79059 3.17578,-1.90547 22.97533,-1.90547 h 21.06986 l 2.34276,2.62002 c 1.28852,1.44101 19.43669,35.6244 40.32926,75.96309 20.89258,40.33869 38.43871,73.49381 38.99141,73.67805 0.69901,0.233 1.00491,-22.31087 1.00491,-74.05763 0,-73.12228 0.0325,-74.42513 1.90547,-76.29806 1.78358,-1.78359 3.17577,-1.90547 21.7652,-1.90547 18.97996,0 19.94015,0.0889 21.67469,2.0055 1.76517,1.95049 1.81494,5.40134 1.81494,125.84497 v 123.83949 l -2.31128,1.87156 c -2.16594,1.75388 -3.61719,1.85343 -23.0793,1.58311 -19.30747,-0.26817 -20.89802,-0.42246 -22.61677,-2.19392 -1.01682,-1.04801 -19.06456,-35.13205 -40.1061,-75.7423 -21.04153,-40.61026 -38.656,-74.24413 -39.14326,-74.74194 -0.54624,-0.55806 -0.88592,27.81767 -0.88592,74.00587 v 74.91097 l -2.51032,1.97461 c -2.34697,1.84613 -3.73352,1.97462 -21.30802,1.97462 -17.5745,0 -18.96104,-0.12849 -21.30801,-1.97462 z"
       id="path69"
       inkscape:connector-curvature="0"
       transform="matrix(0.13840677,0,0,0.13840677,194.85001,324.33481)" />
    <path
       style="fill:#ffffff;stroke-width:0.95273334"
       d="m 234.37789,398.22839 -2.33853,-2.33852 V 272.46759 c 0,-122.15196 0.0196,-123.44189 1.90547,-125.32774 1.78448,-1.78448 3.17578,-1.90547 21.91287,-1.90547 18.73709,0 20.12838,0.12099 21.91286,1.90547 1.88586,1.88585 1.90547,3.17578 1.90547,125.32774 v 123.42228 l -2.33853,2.33852 c -2.32768,2.32769 -2.42728,2.33853 -21.4798,2.33853 -19.05253,0 -19.15213,-0.0108 -21.47981,-2.33853 z"
       id="path71"
       inkscape:connector-curvature="0"
       transform="matrix(0.13840677,0,0,0.13840677,194.85001,324.33481)" />
    <path
       style="fill:#ffffff;stroke-width:0.95273334"
       d="m 2.0223116,399.06977 c -0.8234338,-0.82343 -1.49715245,-2.07541 -1.49715245,-2.78216 0,-0.70674 15.46003485,-29.2794 34.35563185,-63.49478 C 53.776389,298.57745 69.060278,269.90948 68.844989,269.08621 68.6297,268.26295 54.027126,241.32644 36.394824,209.22732 18.762522,177.1282 4.3360925,150.11281 4.3360925,149.19311 c 0,-3.74599 1.4339982,-3.95873 26.6849845,-3.95873 18.254556,0 24.816242,0.30552 26.057652,1.21326 0.912575,0.66729 11.460247,19.41151 23.439272,41.65382 11.979025,22.24231 22.139749,40.54399 22.579379,40.67041 0.43964,0.12641 10.23141,-17.42203 21.75948,-38.99654 11.52807,-21.57451 21.96289,-40.42215 23.18847,-41.88366 l 2.22835,-2.65729 h 25.18316 25.18318 l 1.0322,2.26544 c 0.92409,2.02818 -2.28298,8.28914 -30.62344,59.78401 -17.4106,31.63523 -32.30084,58.63271 -33.08943,59.99443 -1.40188,2.42067 -0.66706,3.85934 32.98483,64.58018 18.93025,34.1574 34.41865,63.07581 34.41865,64.26313 0,4.29018 -0.91936,4.44535 -26.33759,4.44535 -23.61352,0 -24.09358,-0.039 -26.39034,-2.14365 -1.28663,-1.17901 -12.70597,-21.22213 -25.37631,-44.54028 -12.67035,-23.31815 -23.349,-42.7213 -23.73036,-43.11812 -0.38135,-0.39682 -8.777304,14.18 -18.657667,32.39293 -28.745946,52.98875 -30.01644,55.18724 -32.562761,56.34742 -1.509323,0.6877 -10.513033,1.0617 -25.559252,1.0617 -19.8470399,0 -23.4470644,-0.21798 -24.7262384,-1.49715 z"
       id="path73"
       inkscape:connector-curvature="0"
       transform="matrix(0.13840677,0,0,0.13840677,194.85001,324.33481)" />
  </g>
</svg>
